<svg width="26" height="29" viewBox="0 0 26 29" fill="none" xmlns="http://www.w3.org/2000/svg">
<path d="M1.3 7.225C0.793751 7.225 0.400001 6.83125 0.400001 6.325V4.075C0.400001 3.625 0.793751 3.175 1.3 3.175H24.7C25.15 3.175 25.6 3.625 25.6 4.075V6.325C25.6 6.83125 25.15 7.225 24.7 7.225H1.3ZM1.3 16.225C0.793751 16.225 0.400001 15.8313 0.400001 15.325V13.075C0.400001 12.625 0.793751 12.175 1.3 12.175H24.7C25.15 12.175 25.6 12.625 25.6 13.075V15.325C25.6 15.8313 25.15 16.225 24.7 16.225H1.3ZM1.3 25.225C0.793751 25.225 0.400001 24.8313 0.400001 24.325V22.075C0.400001 21.625 0.793751 21.175 1.3 21.175H24.7C25.15 21.175 25.6 21.625 25.6 22.075V24.325C25.6 24.8313 25.15 25.225 24.7 25.225H1.3Z" fill="#2D2A24"/>
</svg>
