<svg width="26" height="29" viewBox="0 0 26 29" fill="none" xmlns="http://www.w3.org/2000/svg">
<path d="M20.6875 12.9688C20.8125 12.875 21 12.9688 21 13.125V19.5C21 20.3438 20.3125 21 19.5 21H6.5C5.65625 21 5 20.3438 5 19.5V13.125C5 12.9688 5.15625 12.875 5.28125 12.9688C6 13.5312 6.90625 14.2188 10.0938 16.5312C10.75 17 11.875 18.0312 13 18.0312C14.0938 18.0312 15.25 17 15.875 16.5312C19.0625 14.2188 19.9688 13.5312 20.6875 12.9688ZM13 17C12.25 17.0312 11.2188 16.0938 10.6875 15.7188C6.53125 12.7188 6.21875 12.4375 5.28125 11.6875C5.09375 11.5625 5 11.3438 5 11.0938V10.5C5 9.6875 5.65625 9 6.5 9H19.5C20.3125 9 21 9.6875 21 10.5V11.0938C21 11.3438 20.875 11.5625 20.6875 11.6875C19.75 12.4375 19.4375 12.7188 15.2812 15.7188C14.75 16.0938 13.7188 17.0312 13 17Z" fill="#C67A5C"/>
</svg>
