<svg width="26" height="29" viewBox="0 0 26 29" fill="none" xmlns="http://www.w3.org/2000/svg">
<path d="M20.5312 18.3125C20.7812 18.4375 20.9688 18.7188 20.9688 19.0312C20.9688 19.0625 20.9688 19.125 20.9688 19.1875L20.2188 22.4375C20.125 22.7812 19.8438 23 19.5 23C11.4688 23 5 16.5312 5 8.5C5 8.15625 5.21875 7.875 5.5625 7.78125L8.8125 7.03125C8.875 7.03125 8.9375 7 8.96875 7C9.28125 7 9.5625 7.1875 9.6875 7.46875L11.1875 10.9688C11.2188 11.0625 11.25 11.1562 11.25 11.25C11.25 11.5 11.125 11.7188 10.9688 11.8438L9.0625 13.4062C10.2188 15.8438 12.1562 17.7812 14.5938 18.9375L16.1562 17.0312C16.2812 16.875 16.5 16.75 16.7188 16.75C16.8438 16.75 16.9375 16.7812 17.0312 16.8125L20.5312 18.3125Z" fill="#C67A5C"/>
</svg>
