<svg width="26" height="29" viewBox="0 0 26 29" fill="none" xmlns="http://www.w3.org/2000/svg">
<path d="M13 7.25C17.2812 7.25 20.75 10.7188 20.75 15C20.75 19.2812 17.2812 22.75 13 22.75C8.71875 22.75 5.25 19.2812 5.25 15C5.25 10.7188 8.71875 7.25 13 7.25ZM15.875 17.0312C15.9375 16.9688 16 16.8438 16 16.7188C16 16.5625 15.9062 16.4375 15.8125 16.3438L14 15V10.5C14 10.25 13.75 10 13.5 10H12.5C12.2188 10 12 10.25 12 10.5V15.375C12 15.7812 12.1562 16.125 12.4688 16.3438L14.5625 17.9062C14.625 17.9688 14.75 18.0312 14.8438 18.0312C15.0312 18.0312 15.1562 17.9375 15.25 17.8125L15.875 17.0312Z" fill="#C67A5C"/>
</svg>
